# xmcd CD database file
#
# Track frame offsets:
#	151
#	13800
#	27208
#	41904
#	56418
#	69518
#	84409
#	97653
#	113039
#	125445
#	140410
#	152660
#	165454
#	179272
#	191083
#	206149
#	219403
#	230867
#	244015
#	258893
#
# Disc length: 3649 seconds
#
# Revision: 0
# Processed by: cddbd v1.5.1PL2 Copyright (c) Steve Scherf et al.
# Submitted via: CDex 1.51
#
DISCID=110e3f14
DTITLE=Various Artist - / History of Jazz
DYEAR=1945
DGENRE=Jazz
TTITLE0=GOOD BAIT (Dameron-Basie) Dizzy Gillespie All Stars - Jan 9
TTITLE1=SOMETIMES I'M HAPPY (Youmans-Caesar) Al Casey and His Sextet - Jan 19
TTITLE2=IN THE MIDDLE (Auld-Van Lake) Georgie Auld and His Orchestra - Feb 7
TTITLE3=NORTHWEST PASSAGE (Herman-Jackson-Burns) Woody Herman and His Orchestra - Mar 1
TTITLE4=BLACK AND TAN FANTASY (Miley-Ellington) Duke Ellington and His Famous Orchestra - May 11
TTITLE5=SALT PEANUTS (Gillespie-Clarke) Dizzy Gillespie and His All Stars Quintet - May 11
TTITLE6=DON'T EXPLAIN (Holiday-Herzog) Billie Holiday with Bobby Haggart and His Orchestra - Aug 14
TTITLE7=BOOGIE BLUES (Krupa-Biondi) Anita O'Day with Gene Krupa and His Orchestra - Aug 21
TTITLE8=LADIES LULLABY (Thompson) Illinois Jacquet - Aug 28
TTITLE9=SHINE (Mack-Brown-Dabney) Benny Goodman Sextet - Aug 29
TTITLE10=REVOLUTIONARY BLUES (Mezzrow) Milton "Mezz" Mezzrow with Sidney Bechet - Aug 30
TTITLE11=LAURA (Raksin-Mercer) Don Byas Quartet - Sep 6
TTITLE12=OH, DIDN'T HE RAMBLE (Traditional) Kid Ory Creole Jazz Band - Sep 8
TTITLE13=PETOOTIE PIE (Paparelli-Pack-Leveen) Ella Fitzgerald with Louis Jordan and His Tympany Five - Oct 15
TTITLE14=YOU TOOK ADVANTAGE OF ME (Hart-Rodgers) Mussgy Spanier and His V-disc Dixielanders - Oct 22
TTITLE15=PAINTED RHYTHM (Kenton) Stan Kenton and His Orchestra - Oct 30
TTITLE16=LESTER BLOWS AGAIN (Young) Lester Young and His Band - Oct
TTITLE17=KO KO (Parker) Charlie Parker's Reboppers - Nov 26
TTITLE18=NOW'S THE TIME (Parker) Charlie Parker's Reboppers - Nov 26
TTITLE19=HEY! BA-BA-RE-BOP (Hampton-Hamner) Lionel Hampton and His Orchestra - Dec 1
EXTD=YEAR: 1945
EXTT0=
EXTT1=
EXTT2=
EXTT3=
EXTT4=
EXTT5=
EXTT6=
EXTT7=
EXTT8=
EXTT9=
EXTT10=
EXTT11=
EXTT12=
EXTT13=
EXTT14=
EXTT15=
EXTT16=
EXTT17=
EXTT18=
EXTT19=
PLAYORDER=
